<svg width="50" height="50" viewBox="0 0 50 50" fill="none" xmlns="http://www.w3.org/2000/svg">
<g clip-path="url(#clip0_2057_31)">
<g filter="url(#filter0_d_2057_31)">
<path d="M1.46309 0.129458C1.23318 0.233965 0.815151 0.568386 0.522533 0.881906L0 1.44624V25.0438V48.6414L0.689743 49.3103L1.35859 50H19.1247H36.8908L37.5597 49.3103L38.2494 48.6414V43.6878C38.2494 39.2149 38.2076 38.7342 37.8941 38.5252C37.6224 38.358 37.4134 38.358 37.1625 38.5252C36.8281 38.7342 36.7863 39.2358 36.7236 43.3116C36.7027 46.2587 36.5982 47.9726 36.4519 48.1607C36.1175 48.5369 2.21554 48.5787 1.81841 48.1816C1.46309 47.8263 1.46309 2.21959 1.81841 1.86427C2.21554 1.46714 36.1175 1.50895 36.4519 1.88517C36.5982 2.09418 36.7027 4.74865 36.7236 10.392C36.7863 17.9583 36.8072 18.6271 37.1625 18.8361C37.4134 19.0033 37.6224 19.0033 37.8941 18.8361C38.2285 18.6271 38.2494 17.9583 38.2494 10.0158V1.40444L37.5597 0.735596L36.8908 0.0458529L19.3755 0.00405027C9.76091 -0.016851 1.69301 0.0458529 1.46309 0.129458Z" fill="white"/>
<path d="M7.67083 5.20859C7.2946 5.58482 7.33641 9.43066 7.71263 9.74418C7.90074 9.91139 11.0986 9.95319 19.2293 9.93229C29.6799 9.86959 30.4951 9.84868 30.7041 9.49336C30.8713 9.24255 30.8713 9.03353 30.7041 8.76182C30.4951 8.42739 29.7008 8.40649 19.7727 8.34379L9.09212 8.30199V7.46593V6.62988L19.7727 6.58808C29.7008 6.52538 30.4951 6.50447 30.7041 6.14915C30.8713 5.89834 30.8713 5.68932 30.7041 5.41761C30.4951 5.08318 29.6799 5.06228 19.1875 4.99958C10.597 4.95778 7.85894 5.02048 7.67083 5.20859Z" fill="white"/>
<path d="M46.589 10.162C46.3382 10.2666 45.8783 10.6846 45.5439 11.0817C45.2095 11.4788 44.7079 11.8551 44.4152 11.9178C44.039 12.0223 43.6001 12.5448 42.8267 13.8825C42.137 15.0948 41.6772 15.7009 41.4682 15.6382C41.301 15.5755 40.9038 15.5337 40.5485 15.5337C39.6915 15.5128 39.5452 16.3488 40.2977 16.9759L40.8202 17.3939L37.3715 23.3508C34.8215 27.7401 33.6511 29.9974 32.8986 31.9203C32.3552 33.3625 31.6445 34.9928 31.3519 35.5571C30.7876 36.6858 30.704 37.2292 31.0384 38.0862C31.2265 38.5878 31.1638 38.7759 30.3696 39.7583L29.4708 40.8661L29.1364 40.1554C28.9692 39.7792 28.6348 39.2567 28.4257 39.0268C27.9032 38.4415 26.7745 38.4624 26.1475 39.0895L25.6459 39.5911L25.5205 38.8387C25.4578 38.4206 25.395 37.7309 25.395 37.292C25.395 36.3723 24.9352 35.369 24.4545 35.1809C23.7647 34.9301 22.9496 35.0555 22.5316 35.5153C22.3017 35.7871 21.591 37.5219 20.9849 39.3821C20.0443 42.2247 19.9189 42.8099 20.1488 43.0816C20.4832 43.4787 21.0894 43.5205 21.3611 43.1443C21.4865 43.0189 22.0299 41.5349 22.5943 39.8628L23.5975 36.8321L23.8275 38.755C24.0783 40.9706 24.4336 41.5349 25.5414 41.5349C26.0221 41.5349 26.4192 41.3677 26.7745 41.0124C27.0672 40.7198 27.3389 40.4899 27.3807 40.4899C27.4225 40.4899 27.5688 40.8243 27.6942 41.2214C27.9868 42.1202 28.6139 42.58 29.5126 42.58C30.1187 42.58 30.3487 42.3919 31.3728 41.1378C32.4388 39.821 32.6269 39.6956 33.4839 39.5911C34.508 39.4866 35.0306 39.0895 35.8039 37.8772C36.0965 37.4174 37.058 36.1424 37.9567 35.0555C39.0645 33.676 40.6321 31.2306 43.0567 27.0085C44.9796 23.6643 46.589 20.8844 46.6517 20.8008C46.8189 20.4873 47.7595 21.3024 47.7595 21.7623C47.7595 22.0131 46.9443 23.6016 45.9619 25.3155C44.9796 27.0085 44.2271 28.5343 44.2898 28.6806C44.478 29.1822 45.1468 29.4331 45.523 29.1404C45.6902 28.9941 46.6517 27.4892 47.634 25.7544C49.5988 22.3475 49.766 21.6996 49.0135 20.4664C48.7836 20.1111 48.5328 19.7976 48.4492 19.7976C48.3447 19.7976 48.1148 19.6512 47.9058 19.5049C47.5713 19.2332 47.6131 19.1078 48.6164 17.373C49.4316 15.9308 49.6406 15.3874 49.557 14.9275C49.4943 14.5722 49.5779 14.0706 49.766 13.6944C50.5393 12.1895 49.5152 10.2456 47.8431 10.0575C47.4041 10.0157 46.8398 10.0575 46.589 10.162ZM48.1357 11.8969C48.4701 12.2313 48.4492 12.7329 48.1148 13.1927C47.8431 13.5481 47.8013 13.5481 47.1742 13.2345C46.4009 12.8374 46.38 12.7538 46.8398 12.1059C47.1951 11.6042 47.7386 11.4997 48.1357 11.8969ZM46.4009 14.7185C47.1324 15.1366 47.7177 15.5337 47.6759 15.5964C47.634 15.6591 47.2578 16.307 46.8398 17.0386L46.0455 18.3345L44.8751 17.6865C44.2062 17.3103 43.6001 16.9341 43.4747 16.8296C43.2657 16.6415 44.5825 13.9452 44.896 13.9452C44.9796 13.9452 45.6693 14.3005 46.4009 14.7185ZM44.9796 20.2992C44.8333 20.5291 43.3493 23.0791 41.6981 25.9634C40.0469 28.8269 38.6674 31.2306 38.6256 31.2933C38.542 31.3769 36.8281 30.499 36.0129 29.9347C35.6994 29.7257 36.0547 29.0568 39.0018 23.936L42.346 18.1672L43.8091 19.0033C45.1886 19.7976 45.2513 19.8603 44.9796 20.2992ZM37.2461 32.631C37.4551 32.8191 37.3088 33.1326 36.5773 34.0104C36.0547 34.6375 35.5322 35.1809 35.4277 35.2227C35.3232 35.2645 34.9051 35.0973 34.508 34.8465L33.7765 34.4076L34.299 33.0072C34.5916 32.2547 34.8842 31.5441 34.926 31.4605C35.0306 31.2933 36.7236 32.1502 37.2461 32.631ZM33.8601 36.435C34.4662 36.8321 34.508 37.0829 34.0273 37.6055C33.2748 38.4415 32.2507 37.6891 32.7523 36.644C33.024 36.017 33.1703 35.9752 33.8601 36.435Z" fill="white"/>
<path d="M10.179 11.897C9.84454 12.2315 9.86544 12.7958 10.2208 13.0884C10.4089 13.2556 12.9588 13.2974 19.2292 13.2765C27.2762 13.2138 27.9869 13.1929 28.1959 12.8376C28.3631 12.5868 28.3631 12.3778 28.1959 12.1061C27.9869 11.7716 27.2762 11.7507 19.2083 11.688C12.5617 11.6462 10.3671 11.7089 10.179 11.897Z" fill="white"/>
<path d="M13.5232 17.7493C13.1888 18.0838 13.2097 18.6481 13.565 18.9407C13.7531 19.1079 16.5121 19.1497 23.4095 19.1288C32.2508 19.0661 33.0032 19.0452 33.2122 18.6899C33.3794 18.4391 33.3794 18.2301 33.2122 17.9583C33.0032 17.6239 32.2508 17.603 23.3886 17.5403C16.0941 17.4985 13.7113 17.5612 13.5232 17.7493Z" fill="white"/>
<path d="M5.99866 22.7657C5.66424 23.1001 5.68514 23.6644 6.04047 23.9571C6.22858 24.1243 8.77854 24.1661 15.0489 24.1452C23.0959 24.0825 23.8066 24.0616 24.0156 23.7063C24.1828 23.4554 24.1828 23.2464 24.0156 22.9747C23.8066 22.6403 23.0959 22.6194 15.028 22.5567C8.38141 22.5149 6.18677 22.5776 5.99866 22.7657Z" fill="white"/>
<path d="M26.0639 22.7658C25.9385 22.8912 25.8131 23.1838 25.8131 23.3719C25.8131 24.1034 26.2938 24.208 29.6799 24.1453C32.5642 24.0825 33.0032 24.0407 33.2122 23.7063C33.3794 23.4555 33.3794 23.2465 33.2122 22.9748C33.0032 22.6613 32.5642 22.6195 29.659 22.5568C27.2344 22.5149 26.252 22.5777 26.0639 22.7658Z" fill="white"/>
<path d="M5.99866 26.9459C5.66424 27.2803 5.68514 27.8446 6.04047 28.1372C6.22858 28.3044 7.69167 28.3672 10.8687 28.3253C14.9444 28.2626 15.4461 28.2208 15.6551 27.8864C15.8223 27.6356 15.8223 27.4266 15.6551 27.1549C15.4461 26.8414 14.9444 26.7996 10.8478 26.7368C7.46175 26.695 6.18677 26.7578 5.99866 26.9459Z" fill="white"/>
<path d="M17.7035 26.9459C17.578 27.0713 17.4526 27.364 17.4526 27.5521C17.4526 28.2836 17.9334 28.3881 21.3194 28.3254C24.2038 28.2627 24.6427 28.2209 24.8517 27.8865C25.0189 27.6357 25.0189 27.4267 24.8517 27.155C24.6427 26.8414 24.2038 26.7996 21.2985 26.7369C18.8739 26.6951 17.8916 26.7578 17.7035 26.9459Z" fill="white"/>
<path d="M8.36051 32.84C6.35398 33.467 4.76548 34.8465 3.88763 36.7276C3.11428 38.3788 3.11428 40.9288 3.88763 42.58C4.57737 44.0431 5.87325 45.339 7.37815 46.0705C8.40231 46.5722 8.82034 46.6558 10.3461 46.6558C11.8719 46.6558 12.29 46.5722 13.3141 46.0705C15.6551 44.921 17.2854 42.6009 17.3272 40.3436C17.3481 39.4448 17.2645 39.1313 16.9719 38.9432C16.3657 38.5461 15.9059 39.0477 15.7387 40.26C15.467 42.1411 14.401 43.646 12.7498 44.5238C11.5793 45.1509 9.11296 45.1509 7.94248 44.5238C6.96012 44.0013 5.95686 42.9771 5.41342 41.953C4.84909 40.8661 4.86999 38.3579 5.47613 37.2502C6.52119 35.2854 8.10969 34.324 10.3461 34.324C11.7047 34.324 12.06 34.4076 13.0215 34.9301C14.2547 35.6199 14.8399 35.5154 14.8399 34.6166C14.8399 33.1953 10.7642 32.0875 8.36051 32.84Z" fill="white"/>
<path d="M11.7883 38.755L10.1371 40.3644L9.11296 39.3611C7.96339 38.2324 7.16914 38.107 7.04373 39.0058C6.98103 39.382 7.25274 39.8 8.1724 40.7197C9.21747 41.7648 9.51009 41.9529 10.1371 41.9529C10.806 41.9529 11.0986 41.7439 12.708 40.0927C13.7113 39.0685 14.5264 38.1488 14.5264 38.0234C14.5264 37.7308 13.9412 37.1456 13.6485 37.1456C13.5231 37.1456 12.6871 37.8771 11.7883 38.755Z" fill="white"/>
</g>
</g>
<defs>
<filter id="filter0_d_2057_31" x="-4" y="0" width="58.0283" height="58" filterUnits="userSpaceOnUse" color-interpolation-filters="sRGB">
<feFlood flood-opacity="0" result="BackgroundImageFix"/>
<feColorMatrix in="SourceAlpha" type="matrix" values="0 0 0 0 0 0 0 0 0 0 0 0 0 0 0 0 0 0 127 0" result="hardAlpha"/>
<feOffset dy="4"/>
<feGaussianBlur stdDeviation="2"/>
<feComposite in2="hardAlpha" operator="out"/>
<feColorMatrix type="matrix" values="0 0 0 0 0 0 0 0 0 0 0 0 0 0 0 0 0 0 0.25 0"/>
<feBlend mode="normal" in2="BackgroundImageFix" result="effect1_dropShadow_2057_31"/>
<feBlend mode="normal" in="SourceGraphic" in2="effect1_dropShadow_2057_31" result="shape"/>
</filter>
<clipPath id="clip0_2057_31">
<rect width="50" height="50" fill="white"/>
</clipPath>
</defs>
</svg>
