<svg width="50" height="50" viewBox="0 0 50 50" fill="none" xmlns="http://www.w3.org/2000/svg">
<path d="M7.5435 0.25966C6.6325 0.659612 5.69928 1.79281 5.54374 2.6816C5.47708 3.08155 5.45486 13.3026 5.47708 25.4345C5.54374 47.2985 5.54374 47.4763 6.01035 48.0762C6.25477 48.4095 6.7436 48.8983 7.07689 49.1428C7.67682 49.6094 7.85458 49.6094 24.9859 49.6094C42.1172 49.6094 42.2949 49.6094 42.8949 49.1428C43.2282 48.8983 43.717 48.4095 43.9614 48.0762C44.428 47.4763 44.428 47.343 44.428 24.8345C44.428 2.32608 44.428 2.19276 43.9614 1.59284C43.717 1.25954 43.2282 0.77071 42.8949 0.526295C42.2949 0.0596833 42.0728 0.0596833 25.2525 0.0152441C11.4319 -0.0291951 8.07677 0.0152441 7.5435 0.25966ZM42.2061 2.28164C42.6727 2.72603 42.7616 3.03711 42.7616 4.05921V5.28129H24.9859H7.21021V4.05921C7.21021 3.03711 7.29909 2.72603 7.7657 2.28164L8.29897 1.72615H24.9859H41.6728L42.2061 2.28164ZM42.7616 24.8345V42.6102H24.9859H7.21021V24.8345V7.05885H24.9859H42.7616V24.8345ZM42.7616 45.6098C42.7616 46.6319 42.6727 46.943 42.2061 47.3874L41.6728 47.9429H24.9859H8.29897L7.7657 47.3874C7.29909 46.943 7.21021 46.6319 7.21021 45.6098V44.3878H24.9859H42.7616V45.6098Z" fill="white"/>
<path d="M21.6974 2.88145C21.5641 3.01477 21.4308 3.32584 21.4308 3.52582C21.4308 4.28128 21.9641 4.4146 25.097 4.34794C27.7411 4.28128 28.1855 4.23684 28.4077 3.88133C28.5855 3.61469 28.5855 3.3925 28.4077 3.10364C28.1855 2.77035 27.7189 2.72591 25.0748 2.65925C22.8528 2.61481 21.8974 2.68147 21.6974 2.88145Z" fill="white"/>
<path d="M13.9871 9.39179L13.4316 9.92506V23.0568V36.1886L13.9871 36.7219L14.5204 37.2774H19.9864H25.4302V38.6106C25.4302 39.6549 25.5191 40.0326 25.8746 40.3881C26.519 41.0325 26.8967 40.9436 28.2521 39.9437L29.4297 39.0327L30.6074 39.9437C31.9628 40.9436 32.3405 41.0325 32.9849 40.3881C33.3404 40.0326 33.4293 39.6549 33.4293 38.6106V37.2774H34.4292C35.2068 37.2774 35.5846 37.1441 35.9845 36.7219L36.54 36.1886V23.0568V9.92506L35.9845 9.39179L35.4513 8.8363H24.9858H14.5204L13.9871 9.39179ZM34.7624 23.0568V35.4998H34.0959C33.5182 35.4998 33.4293 35.4332 33.4293 34.8554C33.4293 34.4999 33.6293 33.7889 33.8737 33.2556C35.2957 30.1004 32.9404 26.5453 29.4297 26.5453C25.8302 26.5453 23.4749 30.3004 25.0747 33.5C25.2747 33.9 25.4302 34.5221 25.4302 34.8777V35.4998H20.3197H15.2092V23.0568V10.6139H24.9858H34.7624V23.0568ZM31.0296 28.7673C32.9404 29.7227 32.9849 32.789 31.0962 33.9444C28.5187 35.5442 25.4524 32.9223 26.6079 30.1004C26.9856 29.2339 27.4078 28.8784 28.4743 28.5006C29.3631 28.1896 30.0297 28.2562 31.0296 28.7673ZM29.4297 36.1664C30.0297 36.1664 30.7629 36.0775 31.074 35.9442L31.6517 35.722V37.0774V38.4328L30.7185 37.744C29.5631 36.8996 29.252 36.8774 28.2077 37.7218C27.7411 38.0773 27.3411 38.3884 27.2967 38.3884C27.2522 38.3884 27.2078 37.7884 27.2078 37.0552V35.722L27.7855 35.9442C28.0966 36.0775 28.8298 36.1664 29.4297 36.1664Z" fill="white"/>
<path d="M18.1422 13.547C18.0089 13.6803 17.8756 13.9914 17.8756 14.1913C17.8756 14.9468 18.4089 15.0801 21.5418 15.0135C24.186 14.9468 24.6304 14.9024 24.8526 14.5469C25.0303 14.2802 25.0303 14.058 24.8526 13.7692C24.6304 13.4359 24.1638 13.3914 21.5196 13.3248C19.2977 13.2803 18.3422 13.347 18.1422 13.547Z" fill="white"/>
<path d="M18.1422 17.1022C17.7867 17.4577 17.8089 18.0576 18.1867 18.3687C18.3866 18.5465 20.4086 18.6131 25.097 18.5687C31.1185 18.502 31.7406 18.4576 31.9628 18.1021C32.1406 17.8355 32.1406 17.6133 31.9628 17.3244C31.7406 16.9911 31.1185 16.9467 25.0747 16.88C20.0753 16.8356 18.3422 16.9022 18.1422 17.1022Z" fill="white"/>
<path d="M18.1422 20.6574C17.7867 21.0129 17.8089 21.6128 18.1867 21.9239C18.3866 22.1017 20.4086 22.1683 25.097 22.1239C31.1185 22.0572 31.7406 22.0128 31.9628 21.6573C32.1406 21.3906 32.1406 21.1684 31.9628 20.8796C31.7406 20.5463 31.1185 20.5018 25.0747 20.4352C20.0753 20.3907 18.3422 20.4574 18.1422 20.6574Z" fill="white"/>
<path d="M18.1422 24.2123C17.7867 24.5678 17.8089 25.1678 18.1867 25.4788C18.3866 25.6566 20.4086 25.7232 25.097 25.6788C31.1185 25.6121 31.7406 25.5677 31.9628 25.2122C32.1406 24.9456 32.1406 24.7234 31.9628 24.4345C31.7406 24.1012 31.1185 24.0568 25.0747 23.9901C20.0753 23.9457 18.3422 24.0123 18.1422 24.2123Z" fill="white"/>
</svg>
