<svg width="50" height="50" viewBox="0 0 50 50" fill="none" xmlns="http://www.w3.org/2000/svg">
<g clip-path="url(#clip0_2059_50)">
<path d="M12.3047 0.214844C11.4062 0.566406 10.5078 1.40625 10.1367 2.22656C9.78516 2.98828 9.76562 3.96484 9.76562 25V46.9922L10.1953 47.8516C10.4688 48.3594 10.9961 48.9648 11.4844 49.3164L12.3438 49.9023L26.1328 49.9609L39.9414 50L40.8008 49.5703C41.2891 49.3164 41.9531 48.7891 42.2656 48.3789L42.8711 47.6172V25V2.38281L42.2656 1.62109C41.9531 1.21094 41.2891 0.683594 40.8203 0.429688L39.9609 0L26.3672 0.0195312C17.9297 0.0195312 12.6172 0.0976562 12.3047 0.214844ZM25.9766 2.24609V3.69141L24.2773 3.75C22.9102 3.78906 22.5586 3.86719 22.5586 4.10156C22.5586 4.33594 22.9102 4.41406 24.2773 4.45312L25.9766 4.51172V5.76172V7.03125H19.4336H12.8906V25V42.9688H19.4336H25.9766V46.0938V49.2383L19.2578 49.1797C12.8125 49.1211 12.5 49.1016 11.9922 48.7109C11.6992 48.4961 11.2695 48.0664 11.0547 47.7734C10.6445 47.2461 10.6445 47.1094 10.5859 25.5273C10.5664 13.5742 10.5859 3.53516 10.6445 3.18359C10.7812 2.40234 11.6016 1.40625 12.4023 1.05469C12.8516 0.859375 14.5312 0.800781 19.4922 0.78125H25.9766V2.24609ZM30.2734 4.10156C30.2734 4.45312 30.1367 4.49219 28.8281 4.49219C28.0273 4.49219 27.3047 4.39453 27.2461 4.29688C26.9922 3.86719 27.4219 3.71094 28.8281 3.71094C30.1367 3.71094 30.2734 3.75 30.2734 4.10156ZM25.9766 11.6016V15.3711L25.0195 15.4883C23.5742 15.6641 21.9141 16.6016 20.6641 17.9492C18.8281 19.9219 18.1836 22.4414 18.8477 25.0586C19.1602 26.3477 19.1602 26.4062 18.8281 26.6602C18.6133 26.8164 18.418 26.9531 18.3594 26.9531C18.3008 26.9531 17.2266 25.2539 15.9766 23.1641L13.6719 19.3945V13.5938V7.8125H19.8242H25.9766V11.6016ZM33.5938 7.91016C33.5938 7.94922 32.3047 9.66797 30.7422 11.7188C28.1836 15.0391 27.8125 15.4492 27.3633 15.3906L26.8555 15.332L26.7969 11.5625L26.7578 7.8125H30.1758C32.0508 7.8125 33.5938 7.85156 33.5938 7.91016ZM37.832 8.92578C37.3633 9.55078 35.8008 11.6016 34.375 13.4766C32.9492 15.3516 31.6992 16.9727 31.6211 17.0703C31.543 17.1484 31.1719 17.0117 30.8008 16.7188C30.4492 16.4453 29.8633 16.1133 29.5312 15.9961C29.1797 15.8789 28.9062 15.7031 28.9062 15.5859C28.9062 15.4883 30.1953 13.6914 31.7969 11.6211L34.668 7.83203H36.6797L38.6914 7.8125L37.832 8.92578ZM39.0625 17.1289V25.4883L32.9883 33.3984C29.6484 37.7539 26.875 41.3477 26.8359 41.3867C26.7969 41.4453 26.7773 39.1211 26.7969 36.2305L26.8555 30.9961L27.9297 30.7812C30.3711 30.2734 32.3828 28.7109 33.457 26.4258C34.0234 25.2148 34.082 24.9414 34.082 23.1445C34.082 21.3281 34.043 21.0938 33.4375 19.9219C33.0859 19.2188 32.6562 18.418 32.4805 18.1445L32.168 17.6367L35.5664 13.2227C37.4219 10.7812 38.9844 8.78906 39.0039 8.78906C39.043 8.78906 39.0625 12.5391 39.0625 17.1289ZM29.3359 16.7773C30.8008 17.4805 31.9531 18.6133 32.6562 20.0781C33.2422 21.25 33.3008 21.543 33.3008 23.1445C33.3008 24.6289 33.2227 25.0586 32.793 25.9961C32.0898 27.4805 31.1133 28.5156 29.6484 29.3164C28.4766 29.9609 28.3203 29.9805 26.3672 29.9805C24.5898 29.9805 24.1992 29.9219 23.4375 29.5117C21.3086 28.3789 20.1367 26.9336 19.5898 24.707C18.7305 21.1719 20.8203 17.5586 24.4141 16.3867C24.6875 16.2891 25.7031 16.25 26.6602 16.2891C28.0078 16.3281 28.6328 16.4453 29.3359 16.7773ZM39.0625 29.4531V31.9531L35.1367 37.0703L31.2305 42.1875H29.2773C27.7539 42.1875 27.3633 42.1289 27.4609 41.9531C27.7539 41.4844 38.9062 26.9531 38.9844 26.9531C39.0234 26.9531 39.0625 28.0859 39.0625 29.4531ZM18.3203 28.6133C18.457 28.8867 18.5547 29.5898 18.5547 30.1758C18.5547 31.0742 18.4766 31.3086 18.0273 31.7383L17.4805 32.2461L16.4648 31.1133C15.8984 30.4883 15.4492 29.9023 15.4883 29.7852C15.5469 29.6094 17.7344 28.1641 17.9883 28.1445C18.0469 28.125 18.2031 28.3398 18.3203 28.6133ZM15.7031 31.4844C16.3086 32.168 16.7969 32.7539 16.7969 32.8125C16.7969 32.8711 16.0938 33.6133 15.2344 34.4727L13.6719 36.0352V33.418C13.6719 31.1523 13.7109 30.7617 14.0234 30.5469C14.1992 30.4102 14.4141 30.2734 14.4922 30.2734C14.5508 30.2734 15.0977 30.8203 15.7031 31.4844ZM22.9297 32.2656C22.7734 32.9492 22.5586 33.7891 22.4609 34.1602C22.2852 34.8047 22.3242 34.8828 23.1641 35.6641C23.6523 36.1133 23.9844 36.5234 23.8867 36.5625C23.8086 36.6211 22.9883 36.8555 22.0703 37.1094C21.1523 37.3633 20.293 37.6562 20.1562 37.793C20.0195 37.9297 19.3555 38.9453 18.6719 40.0586L17.4609 42.0898L15.5664 42.1484L13.6719 42.207V39.6875V37.1875L14.4141 36.4648L15.1562 35.7422L16.582 36.6406C17.5977 37.3047 18.0469 37.5 18.2031 37.3438C18.4961 37.0508 18.1836 36.6992 16.8945 35.918C16.3086 35.5664 15.8203 35.2148 15.8203 35.1562C15.8203 35.0977 16.5234 34.3555 17.3828 33.4961L18.9453 31.9531L20.3125 32.4023C21.8555 32.8906 21.9531 32.8711 22.6758 31.7188C22.8906 31.3477 23.1055 31.0547 23.1445 31.0547C23.1836 31.0547 23.0859 31.6016 22.9297 32.2656ZM39.0039 42.1289C38.9648 42.168 37.4219 42.168 35.6055 42.1484L32.2852 42.0898L35.625 37.7344L38.9648 33.3789L39.0234 37.7148C39.043 40.0977 39.043 42.0898 39.0039 42.1289ZM25.9766 39.5508V42.1875H24.9023C24.3164 42.1875 23.8281 42.1289 23.8281 42.0703C23.8281 41.8555 25 37.8125 25.1953 37.3438C25.293 37.1094 25.5078 36.9141 25.6836 36.9141C25.9375 36.9141 25.9766 37.3242 25.9766 39.5508Z" fill="white"/>
<path d="M25.1954 18.5353C23.8868 18.9454 22.0899 20.4493 22.3633 20.9181C22.5782 21.2501 22.8907 21.1134 23.7305 20.3321C25.2539 18.9259 27.0899 18.7892 28.7696 19.9806L29.3164 20.3517L28.8282 20.879C28.2618 21.4649 28.1836 21.7774 28.5743 21.9337C29.1407 22.1485 31.6602 22.5196 31.7774 22.4024C31.8946 22.2853 31.5235 19.7657 31.3086 19.1798C31.1719 18.8282 30.8399 18.8868 30.3321 19.3751L29.8829 19.8048L29.2969 19.3556C28.1055 18.4962 26.4454 18.1642 25.1954 18.5353Z" fill="white"/>
<path d="M20.9766 24.6094C21.25 26.3477 21.5235 27.3438 21.7383 27.3438C21.8555 27.3438 22.1485 27.1484 22.4024 26.9141C22.793 26.5625 22.9297 26.5234 23.2032 26.7188C24.3946 27.5586 25.1367 27.8125 26.3672 27.8125C27.8321 27.8125 28.8086 27.4219 29.8242 26.4258C30.5274 25.7031 30.625 25.4297 30.1953 25.2734C30.0391 25.2148 29.5899 25.4883 29.1602 25.918C27.8321 27.2461 26.0547 27.4609 24.375 26.5039C23.5352 26.0547 23.4571 25.8008 24.0235 25.293C24.5313 24.8242 24.5117 24.4531 23.9844 24.3164C22.3438 23.9453 21.7188 23.8281 21.3086 23.8281C20.8789 23.8281 20.8594 23.8867 20.9766 24.6094Z" fill="white"/>
<path d="M46.8164 3.26172C46.7773 3.33984 46.6211 3.82812 46.4843 4.33594C46.2304 5.33203 45.1562 6.73828 44.5312 6.93359C43.9257 7.12891 44.0625 7.46094 45.0195 8.26172C45.9961 9.08203 46.3867 9.70703 46.582 10.8008C46.6796 11.3281 46.8164 11.5234 47.0898 11.5234C47.3437 11.5234 47.4609 11.3867 47.4609 11.0742C47.4609 10.2539 48.4375 8.59375 49.2382 8.06641C49.6679 7.79297 50 7.5 50 7.42188C50 7.34375 49.6484 7.01172 49.2187 6.66016C48.2226 5.87891 47.8515 5.27344 47.5586 4.14062C47.3437 3.30078 47.0117 2.91016 46.8164 3.26172ZM47.2656 5.66406C47.2656 5.76172 47.5781 6.21094 47.9687 6.64062L48.6718 7.40234L47.832 8.37891L47.0117 9.33594L46.4843 8.63281C46.1914 8.22266 45.8203 7.79297 45.6445 7.65625C45.3515 7.40234 45.3711 7.34375 45.8593 6.93359C46.1523 6.67969 46.5234 6.25 46.6601 5.97656C46.9336 5.46875 47.2656 5.29297 47.2656 5.66406Z" fill="white"/>
<path d="M1.42579 10.0976C0.859388 10.3125 1.17189 10.7422 1.91408 10.7422C2.83204 10.7422 2.98829 10.8593 3.49611 11.8554C4.10158 13.0859 4.55079 13.3008 5.99611 13.164C7.20704 13.0273 7.20704 13.0273 7.55861 13.6523C7.89064 14.2383 8.37892 14.3945 8.53517 13.9648C8.65236 13.6133 7.83204 12.5 7.32423 12.3047C6.9922 12.1875 6.52345 12.1875 5.95704 12.3047C4.84376 12.5586 4.58986 12.4414 4.21876 11.5234C3.73048 10.2929 2.50001 9.64841 1.42579 10.0976Z" fill="white"/>
<path d="M45.6445 15.9375C45.5664 16.0156 45.5078 16.3281 45.5078 16.6211C45.5078 17.0898 45.4296 17.168 44.8828 17.2266C44.0234 17.3047 44.0039 17.8516 44.8632 17.9297C45.4101 17.9883 45.4882 18.0664 45.5468 18.6133C45.5859 19.0039 45.7031 19.2383 45.8984 19.2383C46.0937 19.2383 46.2109 19.0039 46.25 18.6133C46.3086 18.0664 46.3867 17.9883 46.9336 17.9297C47.3242 17.8906 47.5586 17.7734 47.5586 17.5781C47.5586 17.3828 47.3242 17.2656 46.9336 17.2266C46.4062 17.168 46.3086 17.0898 46.25 16.5625C46.1914 15.957 45.9179 15.6836 45.6445 15.9375Z" fill="white"/>
<path d="M46.7969 24.6484C46.7383 24.7852 46.6016 25.2539 46.4844 25.6836C46.1719 26.6602 45.4883 27.6172 44.7266 28.0664C44.3945 28.2422 44.1406 28.4961 44.1406 28.6133C44.1406 28.7305 44.5312 29.1602 45.0195 29.5508C45.9961 30.3711 46.3867 30.9961 46.582 32.0898C46.6797 32.6172 46.8164 32.8125 47.0898 32.8125C47.3438 32.8125 47.4609 32.6758 47.4609 32.3633C47.4609 31.543 48.4375 29.8828 49.2383 29.3555C49.668 29.082 50 28.7891 50 28.7109C50 28.6328 49.6484 28.3008 49.2188 27.9492C48.2227 27.168 47.8516 26.5625 47.5586 25.4297C47.3242 24.5312 46.9531 24.1406 46.7969 24.6484ZM47.2656 26.9531C47.2656 27.0508 47.5781 27.5 47.9688 27.9297L48.6719 28.6914L47.832 29.668L46.9922 30.6445L46.6602 30.1172C46.4844 29.8242 46.1133 29.375 45.8398 29.1211L45.332 28.6719L45.8594 28.2227C46.1523 27.9688 46.5234 27.5391 46.6602 27.2656C46.9336 26.7578 47.2656 26.582 47.2656 26.9531Z" fill="white"/>
<path d="M0.781237 27.6953C0.0781115 28.0469 -0.25392 28.7109 0.253893 28.7109C0.429674 28.7109 0.820299 28.5547 1.15233 28.3789C1.71874 28.0469 1.7578 28.0469 2.28514 28.4766C2.57811 28.7109 3.12499 29.043 3.47655 29.1992C4.02342 29.4727 4.17967 29.4727 4.74608 29.1992C5.07811 29.043 5.62499 28.7109 5.91796 28.4766C6.4453 28.0469 6.48436 28.0469 7.05077 28.3789C7.79296 28.7891 8.20311 28.8086 8.20311 28.418C8.20311 28.0469 7.08983 27.3438 6.52342 27.3438C6.28905 27.3438 5.74217 27.5977 5.31249 27.9297C4.41405 28.5742 3.69139 28.6719 3.30077 28.2031C3.0078 27.8516 2.08983 27.3438 1.71874 27.3438C1.58202 27.3438 1.15233 27.5 0.781237 27.6953Z" fill="white"/>
<path d="M46.4844 41.0937C46.4844 41.7577 46.4453 41.7968 45.8008 41.7968C45.2539 41.7968 45.1172 41.8749 45.1172 42.1874C45.1172 42.4999 45.2539 42.578 45.8008 42.578C46.4453 42.578 46.4844 42.6171 46.4844 43.2812C46.4844 43.828 46.543 43.9648 46.8359 43.9062C47.0508 43.8671 47.1875 43.6327 47.2266 43.2226C47.2852 42.6757 47.3633 42.5976 47.9102 42.539C48.3008 42.4999 48.5352 42.3827 48.5352 42.1874C48.5352 41.9921 48.3008 41.8749 47.9102 41.8359C47.3633 41.7773 47.2852 41.6991 47.2266 41.1523C47.1875 40.7421 47.0508 40.5077 46.8359 40.4687C46.543 40.4101 46.4844 40.5468 46.4844 41.0937Z" fill="white"/>
<path d="M7.55855 43.1836C7.22652 43.7891 7.20699 43.7891 5.99605 43.6719C4.55074 43.5156 4.00386 43.8086 3.41792 45.0977C3.04683 45.9375 2.59761 46.1914 1.83589 46.0156C1.50386 45.918 1.32808 45.9766 1.23042 46.2109C1.07417 46.6016 1.48433 46.875 2.24605 46.875C3.04683 46.875 3.63277 46.4258 4.12105 45.4492C4.35542 45 4.64839 44.5703 4.76558 44.4922C4.88277 44.4141 5.46871 44.3945 6.07417 44.4727C7.34371 44.5898 7.87105 44.375 8.30074 43.5352C8.84761 42.5 8.14449 42.168 7.55855 43.1836Z" fill="white"/>
</g>
<defs>
<clipPath id="clip0_2059_50">
<rect width="50" height="50" fill="white"/>
</clipPath>
</defs>
</svg>
