<svg width="50" height="50" viewBox="0 0 50 50" fill="none" xmlns="http://www.w3.org/2000/svg">
<g clip-path="url(#clip0_2057_20)">
<path d="M22.8613 0.927784C21.123 1.30864 19.4727 2.59771 18.6719 4.19927C18.2715 5.00005 17.9785 6.0645 17.9688 6.70903V7.0313H9.61914H1.25977L1.02539 7.27544L0.78125 7.50982V25.0001V42.4903L1.02539 42.7247L1.25977 42.9688H9.61914H17.9688V43.2813C17.9785 43.9356 18.2715 45.0001 18.6719 45.8008C19.3848 47.2169 20.6543 48.3106 22.2852 48.9063L22.998 49.17L33.2715 49.1993C44.8047 49.2286 44.3262 49.2579 45.791 48.5157C47.2168 47.8028 48.3203 46.5235 48.9062 44.9024L49.1699 44.1895V25.0001V5.8106L48.9062 5.09771C48.5352 4.08208 48.0957 3.37896 47.3633 2.63677C46.6406 1.92388 45.7617 1.36724 44.8242 1.04497L44.1895 0.830128L33.8379 0.810597C25.2734 0.800831 23.3789 0.820362 22.8613 0.927784ZM43.8574 2.44146C45.1367 2.6856 46.5332 3.72075 47.1094 4.86333C47.6855 6.00591 47.6562 4.81451 47.6562 24.9122C47.6562 36.7579 47.6172 43.5157 47.5586 43.8575C47.2266 45.6446 45.6543 47.2169 43.8574 47.5587C43.5645 47.6172 41.7969 47.6563 39.8242 47.6563C36.5137 47.6563 36.3086 47.6465 36.3867 47.4903C36.4258 47.3926 36.5234 47.0411 36.6113 46.709L36.7676 46.1036L40.2832 46.0743L43.7988 46.045L44.4141 45.7129C45.0977 45.3419 45.3906 45.0391 45.7812 44.2969L46.0449 43.7989V25.0001V6.20122L45.7129 5.58599C45.3516 4.91216 44.9414 4.52153 44.2383 4.17974L43.7988 3.95513H33.5938H23.3887L22.9004 4.19927C21.9629 4.65825 21.2891 5.56646 21.1426 6.57232L21.0742 7.0313H20.3027H19.5312V6.75786C19.5312 6.33794 19.7949 5.41997 20.0781 4.86333C20.4297 4.16997 21.2793 3.3106 21.9629 2.9395C23.1055 2.33403 22.6465 2.35357 33.457 2.35357C39.7949 2.3438 43.5254 2.38286 43.8574 2.44146ZM32.2461 8.58403C31.3672 11.2305 31.2207 11.7481 31.2988 11.9825C31.377 12.2071 31.6309 12.3731 32.666 12.9102C33.3691 13.2715 33.9746 13.584 34.0234 13.5938C34.0723 13.6133 33.9941 13.8575 33.8477 14.1407C33.7109 14.4141 33.5938 14.7461 33.5938 14.8633C33.5938 14.9903 33.9258 15.586 34.3262 16.1915L35.0684 17.295L34.707 18.3985C34.4629 19.1309 34.3652 19.5801 34.4043 19.7461C34.4531 19.9415 35.127 20.4688 37.1582 21.9141L39.8438 23.8379V25.586V27.3438H40.625H41.4062V25.3028C41.4062 24.1797 41.377 23.1836 41.3477 23.0958C41.3086 23.0079 40.1367 22.1192 38.7305 21.1231C37.334 20.127 36.1621 19.2872 36.1328 19.2676C36.1133 19.2481 36.2305 18.7989 36.4062 18.2813C36.582 17.754 36.7188 17.2364 36.7188 17.129C36.7188 17.0313 36.3965 16.4551 35.9961 15.8692L35.2832 14.7852L35.6055 14.1602C35.9473 13.4864 36.0059 13.1934 35.8398 12.8809C35.7812 12.7735 35.1172 12.3829 34.3652 12.0118C33.2715 11.4551 33.0078 11.2891 33.0469 11.1524C33.0762 11.0645 33.5156 9.75591 34.0137 8.252L34.9316 5.51763L35.2832 5.48833C35.625 5.45903 35.7715 5.55669 37.6465 7.12896L39.6484 8.78911L38.9648 10.1563C38.584 10.9083 38.2812 11.6114 38.2812 11.7286C38.2812 12.0899 38.457 12.2657 39.541 12.9883L40.625 13.7012V14.6583V15.6251H41.4062H42.1875V14.3458C42.1875 13.6426 42.1484 12.9981 42.0996 12.9004C42.041 12.8028 41.582 12.4512 41.0742 12.1094C40.5566 11.7774 40.1367 11.4551 40.1367 11.4161C40.1367 11.3672 40.4199 10.752 40.7715 10.0586C41.3867 8.82818 41.4648 8.57427 41.3477 8.27153C41.3184 8.18364 40.5859 7.53911 39.7266 6.81646L38.1543 5.51763L40.5859 5.48833C41.9238 5.4688 43.1543 5.48833 43.3301 5.51763C43.7305 5.58599 44.2285 6.00591 44.3945 6.41607C44.5117 6.67974 44.5312 9.64849 44.5312 24.0723V41.4063H42.1875H39.8438V39.1309V36.8653L40.2539 35.1954L40.6641 33.5352L39.8047 31.3868C39.3262 30.1856 38.8672 29.17 38.75 29.0723C38.5742 28.9258 38.3301 28.9063 36.8555 28.9063H35.1562V28.1251V27.3438H34.375H33.5938V28.6622C33.5938 29.9415 33.6035 30.0001 33.8379 30.2247C34.0723 30.4688 34.0918 30.4688 35.918 30.4688H37.7539L38.3887 32.0606L39.0234 33.6426L38.7402 34.8145C38.5742 35.459 38.4473 35.9961 38.4375 36.0059C38.4082 36.045 35.5078 36.5137 35.4785 36.4844C35.459 36.4649 35.5469 36.0254 35.6738 35.5079C35.8887 34.668 35.8984 34.5704 35.752 34.5313C35.6641 34.502 35.4004 34.4336 35.1562 34.3751C34.9121 34.3165 34.6484 34.2481 34.5605 34.2188C34.4238 34.1797 34.3262 34.4629 33.9844 35.8399C33.5352 37.627 33.5352 37.8809 33.9453 38.1544C34.1895 38.3106 34.2871 38.3106 36.123 38.0079C37.1777 37.8321 38.0957 37.6954 38.1641 37.6954C38.252 37.6954 38.2812 38.2422 38.2812 40.0879V42.4903L38.5254 42.7247L38.7598 42.9688H41.6602H44.5605L44.4922 43.2813C44.4238 43.6622 44.1895 44.004 43.8086 44.2774C43.5547 44.4727 43.4082 44.4825 39.9121 44.502L36.2793 44.5313L36.0352 44.1895C35.5664 43.5254 34.4531 42.9688 33.5938 42.9688C32.7344 42.9688 31.5723 43.545 31.1426 44.1895L30.9082 44.5313L27.2754 44.5118C23.7891 44.4825 23.6328 44.4727 23.3789 44.2774C22.998 44.004 22.7637 43.6622 22.6953 43.2813L22.627 42.9688H23.1836C23.6426 42.9688 23.7793 42.9297 23.9746 42.7247L24.2188 42.4903V34.9122V27.3438H25H25.7812V28.2715C25.7812 29.1309 25.8008 29.2286 26.0254 29.4434C26.5039 29.9317 26.6211 29.8731 29.3945 27.5684C30.957 26.2696 31.9629 25.3614 31.9922 25.2247C32.0312 25.0977 32.0312 24.9024 31.9922 24.7754C31.9629 24.6387 30.957 23.7305 29.3945 22.4317C26.6211 20.127 26.5039 20.0684 26.0254 20.5567C25.8008 20.7715 25.7812 20.8692 25.7812 21.7286V22.6563H25H24.2188V15.0879V7.50982L23.9746 7.27544C23.7793 7.07036 23.6426 7.0313 23.1934 7.0313C22.793 7.0313 22.6562 6.99224 22.6562 6.89458C22.6562 6.65044 22.8613 6.21099 23.0762 5.96685C23.5254 5.47857 23.5547 5.47857 28.584 5.4688H33.2812L32.2461 8.58403ZM22.6562 15.6251V22.6563H20.9473C18.6133 22.6563 18.75 22.5098 18.75 25.0001C18.75 27.4903 18.6133 27.3438 20.9473 27.3438H22.6562V34.3751V41.4063H12.5H2.34375V25.0001V8.5938H12.5H22.6562V15.6251ZM29.9316 25.0001C29.9316 25.0489 29.3457 25.5762 28.6426 26.1719L27.3438 27.2559V26.7579C27.3438 26.3575 27.2949 26.211 27.0996 26.0254L26.8652 25.7813H23.584H20.3125V25.0001V24.2188H23.584H26.8652L27.0996 23.9747C27.2949 23.7891 27.3438 23.6426 27.3438 23.2422V22.7442L28.6426 23.8282C29.3457 24.4239 29.9316 24.9512 29.9316 25.0001ZM21.123 43.4083C21.2598 44.3848 21.8555 45.2149 22.7734 45.7129L23.3887 46.045L26.9043 46.0743L30.4199 46.1036L30.5762 46.709C30.6641 47.0411 30.7617 47.3926 30.8008 47.4903C30.8789 47.6465 30.6738 47.6563 27.3633 47.6563C25.3906 47.6563 23.623 47.6172 23.3301 47.5587C22.0508 47.3145 20.7324 46.3477 20.127 45.2247C19.8145 44.629 19.5312 43.7012 19.5312 43.2422V42.9688H20.3027H21.0645L21.123 43.4083ZM34.209 44.668C35.2148 45.0879 35.459 46.3965 34.6777 47.1778C34.043 47.8126 33.1445 47.8126 32.5098 47.1778C31.2988 45.9766 32.6367 44.004 34.209 44.668Z" fill="white"/>
<path d="M9.18945 15.4688L4.94141 19.7168L5.41016 20.2539C5.66406 20.5566 5.92773 20.8008 5.98633 20.8008C6.05469 20.8008 8.00781 18.8965 10.3418 16.5625L14.5898 12.3145L14.209 11.8945C13.8281 11.4746 13.5742 11.2402 13.4766 11.2305C13.4473 11.2305 11.5234 13.1348 9.18945 15.4688Z" fill="white"/>
<path d="M6.66016 13.3105C5.74219 14.2383 4.98047 15.0391 4.98047 15.0879C4.98047 15.2148 5.87891 16.1133 6.00586 16.1133C6.06445 16.1133 6.86523 15.3516 7.80273 14.4141C9.36523 12.8516 9.49219 12.7051 9.36523 12.5293C9.22852 12.334 8.45703 11.6211 8.38867 11.6211C8.36914 11.6211 7.58789 12.3828 6.66016 13.3105Z" fill="white"/>
<path d="M14.6484 33.4473L10.4004 37.6953L10.9668 38.252L11.5234 38.8184L15.791 34.5508L20.0488 30.293L19.5801 29.7461C19.3164 29.4434 19.0527 29.1992 19.0039 29.1992C18.9453 29.1992 16.9824 31.1133 14.6484 33.4473Z" fill="white"/>
<path d="M16.7969 35.9863L15.0879 37.6953L15.6543 38.252L16.2109 38.8184L17.9199 37.1094C18.8574 36.1719 19.6289 35.3516 19.6289 35.3027C19.6289 35.1758 18.7305 34.2773 18.6035 34.2773C18.5449 34.2773 17.7344 35.0488 16.7969 35.9863Z" fill="white"/>
</g>
<defs>
<clipPath id="clip0_2057_20">
<rect width="50" height="50" fill="white"/>
</clipPath>
</defs>
</svg>
