<svg width="95" height="24" viewBox="0 0 95 24" fill="none" xmlns="http://www.w3.org/2000/svg">
<path d="M0.656 23V0.599998H5.84V18.776H17.072V23H0.656ZM30.4735 23.384C28.7028 23.384 27.0602 23.096 25.5455 22.52C24.0522 21.944 22.7508 21.1333 21.6415 20.088C20.5535 19.0427 19.7002 17.816 19.0815 16.408C18.4842 15 18.1855 13.464 18.1855 11.8C18.1855 10.136 18.4842 8.6 19.0815 7.192C19.7002 5.784 20.5642 4.55733 21.6735 3.512C22.7828 2.46667 24.0842 1.656 25.5775 1.08C27.0708 0.503999 28.6922 0.216 30.4415 0.216C32.2122 0.216 33.8335 0.503999 35.3055 1.08C36.7988 1.656 38.0895 2.46667 39.1775 3.512C40.2868 4.55733 41.1508 5.784 41.7695 7.192C42.3882 8.57867 42.6975 10.1147 42.6975 11.8C42.6975 13.464 42.3882 15.0107 41.7695 16.44C41.1508 17.848 40.2868 19.0747 39.1775 20.12C38.0895 21.144 36.7988 21.944 35.3055 22.52C33.8335 23.096 32.2228 23.384 30.4735 23.384ZM30.4415 18.968C31.4442 18.968 32.3615 18.7973 33.1935 18.456C34.0468 18.1147 34.7935 17.624 35.4335 16.984C36.0735 16.344 36.5642 15.5867 36.9055 14.712C37.2682 13.8373 37.4495 12.8667 37.4495 11.8C37.4495 10.7333 37.2682 9.76267 36.9055 8.888C36.5642 8.01333 36.0735 7.256 35.4335 6.616C34.8148 5.976 34.0788 5.48533 33.2255 5.144C32.3722 4.80267 31.4442 4.632 30.4415 4.632C29.4388 4.632 28.5108 4.80267 27.6575 5.144C26.8255 5.48533 26.0895 5.976 25.4495 6.616C24.8095 7.256 24.3082 8.01333 23.9455 8.888C23.6042 9.76267 23.4335 10.7333 23.4335 11.8C23.4335 12.8453 23.6042 13.816 23.9455 14.712C24.3082 15.5867 24.7988 16.344 25.4175 16.984C26.0575 17.624 26.8042 18.1147 27.6575 18.456C28.5108 18.7973 29.4388 18.968 30.4415 18.968ZM57.4095 23.384C55.6388 23.384 54.0068 23.1067 52.5135 22.552C51.0415 21.976 49.7508 21.1653 48.6415 20.12C47.5535 19.0747 46.7002 17.848 46.0815 16.44C45.4842 15.032 45.1855 13.4853 45.1855 11.8C45.1855 10.1147 45.4842 8.568 46.0815 7.16C46.7002 5.752 47.5642 4.52533 48.6735 3.48C49.7828 2.43467 51.0842 1.63467 52.5775 1.08C54.0708 0.503999 55.7135 0.216 57.5055 0.216C59.4895 0.216 61.2708 0.546666 62.8495 1.208C64.4495 1.86933 65.7935 2.82933 66.8815 4.088L63.5535 7.16C62.7428 6.30667 61.8575 5.67733 60.8975 5.272C59.9375 4.84533 58.8922 4.632 57.7615 4.632C56.6735 4.632 55.6815 4.80267 54.7855 5.144C53.8895 5.48533 53.1108 5.976 52.4495 6.616C51.8095 7.256 51.3082 8.01333 50.9455 8.888C50.6042 9.76267 50.4335 10.7333 50.4335 11.8C50.4335 12.8453 50.6042 13.8053 50.9455 14.68C51.3082 15.5547 51.8095 16.3227 52.4495 16.984C53.1108 17.624 53.8788 18.1147 54.7535 18.456C55.6495 18.7973 56.6308 18.968 57.6975 18.968C58.7215 18.968 59.7135 18.808 60.6735 18.488C61.6548 18.1467 62.6042 17.5813 63.5215 16.792L66.4655 20.536C65.2495 21.4533 63.8308 22.1573 62.2095 22.648C60.6095 23.1387 59.0095 23.384 57.4095 23.384ZM61.7295 19.864V11.448H66.4655V20.536L61.7295 19.864ZM82.161 23.384C80.3903 23.384 78.7477 23.096 77.233 22.52C75.7397 21.944 74.4383 21.1333 73.329 20.088C72.241 19.0427 71.3877 17.816 70.769 16.408C70.1717 15 69.873 13.464 69.873 11.8C69.873 10.136 70.1717 8.6 70.769 7.192C71.3877 5.784 72.2517 4.55733 73.361 3.512C74.4703 2.46667 75.7717 1.656 77.265 1.08C78.7583 0.503999 80.3797 0.216 82.129 0.216C83.8997 0.216 85.521 0.503999 86.993 1.08C88.4863 1.656 89.777 2.46667 90.865 3.512C91.9743 4.55733 92.8383 5.784 93.457 7.192C94.0757 8.57867 94.385 10.1147 94.385 11.8C94.385 13.464 94.0757 15.0107 93.457 16.44C92.8383 17.848 91.9743 19.0747 90.865 20.12C89.777 21.144 88.4863 21.944 86.993 22.52C85.521 23.096 83.9103 23.384 82.161 23.384ZM82.129 18.968C83.1317 18.968 84.049 18.7973 84.881 18.456C85.7343 18.1147 86.481 17.624 87.121 16.984C87.761 16.344 88.2517 15.5867 88.593 14.712C88.9557 13.8373 89.137 12.8667 89.137 11.8C89.137 10.7333 88.9557 9.76267 88.593 8.888C88.2517 8.01333 87.761 7.256 87.121 6.616C86.5023 5.976 85.7663 5.48533 84.913 5.144C84.0597 4.80267 83.1317 4.632 82.129 4.632C81.1263 4.632 80.1983 4.80267 79.345 5.144C78.513 5.48533 77.777 5.976 77.137 6.616C76.497 7.256 75.9957 8.01333 75.633 8.888C75.2917 9.76267 75.121 10.7333 75.121 11.8C75.121 12.8453 75.2917 13.816 75.633 14.712C75.9957 15.5867 76.4863 16.344 77.105 16.984C77.745 17.624 78.4917 18.1147 79.345 18.456C80.1983 18.7973 81.1263 18.968 82.129 18.968Z" fill="white"/>
</svg>
