<svg width="24" height="24" viewBox="0 0 24 24" fill="none" xmlns="http://www.w3.org/2000/svg">
<path d="M12 0C5.37188 0 0 5.37188 0 12C0 18.6281 5.37188 24 12 24C18.6281 24 24 18.6281 24 12C24 5.37188 18.6281 0 12 0ZM17.4609 12.9609L10.7109 17.0859C10.5328 17.1937 10.3266 17.25 10.125 17.25C9.48328 17.25 9 16.725 9 16.125V7.875C9 7.27969 9.47812 6.75 10.125 6.75C10.3286 6.75 10.5318 6.80513 10.7114 6.91481L17.4614 11.0398C17.7938 11.2453 18 11.6063 18 12C18 12.3937 17.7937 12.7547 17.4609 12.9609Z" fill="#7744D9"/>
</svg>
